<?xml version="1.0" standalone="no"?><!DOCTYPE svg PUBLIC "-//W3C//DTD SVG 1.1//EN" "http://www.w3.org/Graphics/SVG/1.1/DTD/svg11.dtd"><svg t="1522510519987" class="icon" style="" viewBox="0 0 1159 1024" version="1.1" xmlns="http://www.w3.org/2000/svg" p-id="5049" xmlns:xlink="http://www.w3.org/1999/xlink" width="144.875" height="128"><defs><style type="text/css"></style></defs><path d="M864.26 154.823c5.243 3.314 8.431 5.135 11.682 6.575h68.109c48.078 0 91.229 15.305 123.866 48.63 33.344 34.095 50.785 75.499 50.785 121.439v471.719c0 47.543-18.203 97.486-50.813 130.848-34.938 35.662-79.085 57.967-123.839 57.967h-737.4c-44.772 0-88.892-22.296-123.866-57.994-32.583-33.325-50.785-83.287-50.785-130.821v-471.719c0-45.94 17.441-87.344 50.813-121.466 32.61-33.298 75.752-48.603 123.839-48.603 0 0 68.86 0 69.911-0.443 2.4-0.997 5.597-2.753 9.871-5.469 0.906-0.562 4.311-5.071 7.562-11.709l28.752-57.414c9.010-18.411 21.662-30.591 40.38-42.427 10.034-6.33 20.72-9.799 32.040-11.157 6.919-0.833 11.546-0.842 20.919-0.507 1.358 0.045 1.866 0.064 5.189 0.136h308.153c0.815 0 1.748-0.018 4.736-0.091 9.581-0.226 14.308-0.163 21.299 0.743 11.392 1.477 22.096 5.017 32.167 11.383l4.075 2.563c1.793 1.132 3.224 2.056 4.655 3.007 14.172 9.4 24.107 19.326 31.714 34.865l28.816 59.805c2.536 5.18 5.632 9.047 7.372 10.143zM743.337 123.571c-2.264-0.824-3.867-0.787-7.136-0.715-3.423 0.082-4.989 0.109-6.773 0.109h-308.153c-5.253-0.091-6.321-0.118-8.404-0.19-2.301-0.091-3.695-0.136-4.6-0.154-2.092 1.44-3.351 2.463-4.012 3.152-0.037 0.045-28.925 57.821-28.925 57.821-10.015 20.467-20.303 35.671-40.498 48.43-8.141 5.153-15.386 9.146-23.355 12.488-25.773 7.136-25.773 7.136-27.983 6.756-2.572 0.181-2.572 0.181-3.984 0.245-1.331 0.054-2.69 0.091-4.283 0.127-2.318 0.045-5.307 0.091-9.029 0.127-6.212 0.054-14.462 0.099-24.297 0.136-10.562 0.035-23.063 0.054-35.57 0.054l0.315-0.001c-26.289 0-45.297 7.281-59.090 21.353-17.116 17.514-25.003 36.314-25.003 58.157v471.719c0 25.691 10.188 52.37 24.922 67.448 20.004 20.421 41.738 30.808 59.171 30.808h737.4c17.423 0 39.175-10.396 59.090-30.727 14.815-15.15 25.003-41.838 25.003-67.529v-471.719c0-21.833-7.879-40.643-24.922-58.075-13.855-14.145-32.891-21.435-59.171-21.435h-87.235l-17.505-7.743c-8.060-3.559-14.598-7.253-23.454-12.86-18.99-11.962-31.261-28.363-40.552-47.362l-27.802-57.713c-1.956-1.304-2.807-1.856-4.165-2.717zM847.027 557.319c0-150.073-121.657-271.675-271.675-271.675-150.020 0-271.675 121.602-271.675 271.675s121.657 271.675 271.675 271.675c150.020 0 271.675-121.602 271.675-271.675zM756.468 557.319c0 99.995-81.068 181.117-181.117 181.117s-181.117-81.122-181.117-181.117 81.068-181.117 181.117-181.117 181.117 81.122 181.117 181.117zM847.027 367.128c0-25.075 20.312-45.279 45.279-45.279s45.279 20.204 45.279 45.279c0 25.085-20.312 45.279-45.279 45.279s-45.279-20.195-45.279-45.279z" fill="#1AAD19" p-id="5050"></path></svg>