<?xml version="1.0" standalone="no"?><!DOCTYPE svg PUBLIC "-//W3C//DTD SVG 1.1//EN" "http://www.w3.org/Graphics/SVG/1.1/DTD/svg11.dtd"><svg t="1522402013336" class="icon" style="" viewBox="0 0 1024 1024" version="1.1" xmlns="http://www.w3.org/2000/svg" p-id="4516" xmlns:xlink="http://www.w3.org/1999/xlink" width="128" height="128"><defs><style type="text/css"></style></defs><path d="M870.4 870.4c0 14.08-11.52 25.6-25.6 25.6H256c-14.08 0-25.6-11.52-25.6-25.6V128c0-14.08 11.52-25.6 25.6-25.6h588.8c14.08 0 25.6 11.52 25.6 25.6v742.4z" fill="#F2E5CA" p-id="4517"></path><path d="M844.8 908.8H256c-21.76 0-38.4-16.64-38.4-38.4V128c0-21.76 16.64-38.4 38.4-38.4h588.8c21.76 0 38.4 16.64 38.4 38.4v742.4c0 21.76-16.64 38.4-38.4 38.4zM256 115.2c-7.68 0-12.8 5.12-12.8 12.8v742.4c0 7.68 5.12 12.8 12.8 12.8h588.8c7.68 0 12.8-5.12 12.8-12.8V128c0-7.68-5.12-12.8-12.8-12.8H256z" fill="#231C1C" p-id="4518"></path><path d="M307.2 192h486.4v179.2H307.2z" fill="#B8CA43" p-id="4519"></path><path d="M793.6 384H307.2c-7.68 0-12.8-5.12-12.8-12.8V192c0-7.68 5.12-12.8 12.8-12.8h486.4c7.68 0 12.8 5.12 12.8 12.8v179.2c0 7.68-5.12 12.8-12.8 12.8z m-473.6-25.6h460.8V204.8H320v153.6z" fill="#231C1C" p-id="4520"></path><path d="M422.4 512c0 14.08-11.52 25.6-25.6 25.6h-64c-14.08 0-25.6-11.52-25.6-25.6v-25.6c0-14.08 11.52-25.6 25.6-25.6h64c14.08 0 25.6 11.52 25.6 25.6v25.6z" fill="#68AC9B" p-id="4521"></path><path d="M396.8 550.4h-64c-21.76 0-38.4-16.64-38.4-38.4v-25.6c0-21.76 16.64-38.4 38.4-38.4h64c21.76 0 38.4 16.64 38.4 38.4v25.6c0 21.76-16.64 38.4-38.4 38.4z m-64-76.8c-7.68 0-12.8 5.12-12.8 12.8v25.6c0 7.68 5.12 12.8 12.8 12.8h64c7.68 0 12.8-5.12 12.8-12.8v-25.6c0-7.68-5.12-12.8-12.8-12.8h-64z" fill="#231C1C" p-id="4522"></path><path d="M601.6 512c0 14.08-11.52 25.6-25.6 25.6h-64c-14.08 0-25.6-11.52-25.6-25.6v-25.6c0-14.08 11.52-25.6 25.6-25.6h64c14.08 0 25.6 11.52 25.6 25.6v25.6z" fill="#68AC9B" p-id="4523"></path><path d="M576 550.4h-64c-21.76 0-38.4-16.64-38.4-38.4v-25.6c0-21.76 16.64-38.4 38.4-38.4h64c21.76 0 38.4 16.64 38.4 38.4v25.6c0 21.76-16.64 38.4-38.4 38.4z m-64-76.8c-7.68 0-12.8 5.12-12.8 12.8v25.6c0 7.68 5.12 12.8 12.8 12.8h64c7.68 0 12.8-5.12 12.8-12.8v-25.6c0-7.68-5.12-12.8-12.8-12.8h-64z" fill="#231C1C" p-id="4524"></path><path d="M780.8 512c0 14.08-11.52 25.6-25.6 25.6h-64c-14.08 0-25.6-11.52-25.6-25.6v-25.6c0-14.08 11.52-25.6 25.6-25.6h64c14.08 0 25.6 11.52 25.6 25.6v25.6z" fill="#68AC9B" p-id="4525"></path><path d="M755.2 550.4h-64c-21.76 0-38.4-16.64-38.4-38.4v-25.6c0-21.76 16.64-38.4 38.4-38.4h64c21.76 0 38.4 16.64 38.4 38.4v25.6c0 21.76-16.64 38.4-38.4 38.4z m-64-76.8c-7.68 0-12.8 5.12-12.8 12.8v25.6c0 7.68 5.12 12.8 12.8 12.8h64c7.68 0 12.8-5.12 12.8-12.8v-25.6c0-7.68-5.12-12.8-12.8-12.8h-64z" fill="#231C1C" p-id="4526"></path><path d="M422.4 665.6c0 14.08-11.52 25.6-25.6 25.6h-64c-14.08 0-25.6-11.52-25.6-25.6v-25.6c0-14.08 11.52-25.6 25.6-25.6h64c14.08 0 25.6 11.52 25.6 25.6v25.6z" fill="#68AC9B" p-id="4527"></path><path d="M396.8 704h-64c-21.76 0-38.4-16.64-38.4-38.4v-25.6c0-21.76 16.64-38.4 38.4-38.4h64c21.76 0 38.4 16.64 38.4 38.4v25.6c0 21.76-16.64 38.4-38.4 38.4z m-64-76.8c-7.68 0-12.8 5.12-12.8 12.8v25.6c0 7.68 5.12 12.8 12.8 12.8h64c7.68 0 12.8-5.12 12.8-12.8v-25.6c0-7.68-5.12-12.8-12.8-12.8h-64z" fill="#231C1C" p-id="4528"></path><path d="M601.6 665.6c0 14.08-11.52 25.6-25.6 25.6h-64c-14.08 0-25.6-11.52-25.6-25.6v-25.6c0-14.08 11.52-25.6 25.6-25.6h64c14.08 0 25.6 11.52 25.6 25.6v25.6z" fill="#68AC9B" p-id="4529"></path><path d="M576 704h-64c-21.76 0-38.4-16.64-38.4-38.4v-25.6c0-21.76 16.64-38.4 38.4-38.4h64c21.76 0 38.4 16.64 38.4 38.4v25.6c0 21.76-16.64 38.4-38.4 38.4z m-64-76.8c-7.68 0-12.8 5.12-12.8 12.8v25.6c0 7.68 5.12 12.8 12.8 12.8h64c7.68 0 12.8-5.12 12.8-12.8v-25.6c0-7.68-5.12-12.8-12.8-12.8h-64z" fill="#231C1C" p-id="4530"></path><path d="M780.8 819.2c0 14.08-11.52 25.6-25.6 25.6h-64c-14.08 0-25.6-11.52-25.6-25.6V640c0-14.08 11.52-25.6 25.6-25.6h64c14.08 0 25.6 11.52 25.6 25.6v179.2z" fill="#68AC9B" p-id="4531"></path><path d="M755.2 857.6h-64c-21.76 0-38.4-16.64-38.4-38.4V640c0-21.76 16.64-38.4 38.4-38.4h64c21.76 0 38.4 16.64 38.4 38.4v179.2c0 21.76-16.64 38.4-38.4 38.4z m-64-230.4c-7.68 0-12.8 5.12-12.8 12.8v179.2c0 7.68 5.12 12.8 12.8 12.8h64c7.68 0 12.8-5.12 12.8-12.8V640c0-7.68-5.12-12.8-12.8-12.8h-64z" fill="#231C1C" p-id="4532"></path><path d="M422.4 819.2c0 14.08-11.52 25.6-25.6 25.6h-64c-14.08 0-25.6-11.52-25.6-25.6v-25.6c0-14.08 11.52-25.6 25.6-25.6h64c14.08 0 25.6 11.52 25.6 25.6v25.6z" fill="#68AC9B" p-id="4533"></path><path d="M396.8 857.6h-64c-21.76 0-38.4-16.64-38.4-38.4v-25.6c0-21.76 16.64-38.4 38.4-38.4h64c21.76 0 38.4 16.64 38.4 38.4v25.6c0 21.76-16.64 38.4-38.4 38.4z m-64-76.8c-7.68 0-12.8 5.12-12.8 12.8v25.6c0 7.68 5.12 12.8 12.8 12.8h64c7.68 0 12.8-5.12 12.8-12.8v-25.6c0-7.68-5.12-12.8-12.8-12.8h-64z" fill="#231C1C" p-id="4534"></path><path d="M601.6 819.2c0 14.08-11.52 25.6-25.6 25.6h-64c-14.08 0-25.6-11.52-25.6-25.6v-25.6c0-14.08 11.52-25.6 25.6-25.6h64c14.08 0 25.6 11.52 25.6 25.6v25.6z" fill="#68AC9B" p-id="4535"></path><path d="M576 857.6h-64c-21.76 0-38.4-16.64-38.4-38.4v-25.6c0-21.76 16.64-38.4 38.4-38.4h64c21.76 0 38.4 16.64 38.4 38.4v25.6c0 21.76-16.64 38.4-38.4 38.4z m-64-76.8c-7.68 0-12.8 5.12-12.8 12.8v25.6c0 7.68 5.12 12.8 12.8 12.8h64c7.68 0 12.8-5.12 12.8-12.8v-25.6c0-7.68-5.12-12.8-12.8-12.8h-64z" fill="#231C1C" p-id="4536"></path><path d="M499.2 332.8h-25.6v-76.8h-12.8v-25.6h38.4z" fill="#231C1C" p-id="4537"></path><path d="M652.8 332.8h-25.6v-76.8h-12.8v-25.6h38.4z" fill="#231C1C" p-id="4538"></path><path d="M550.4 243.2h25.6v76.8h-25.6z" fill="#231C1C" p-id="4539"></path><path d="M524.8 268.8h76.8v25.6h-76.8z" fill="#231C1C" p-id="4540"></path><path d="M678.4 256h64v25.6h-64z" fill="#231C1C" p-id="4541"></path><path d="M678.4 294.4h64v25.6h-64z" fill="#231C1C" p-id="4542"></path></svg>