<?xml version="1.0" standalone="no"?><!DOCTYPE svg PUBLIC "-//W3C//DTD SVG 1.1//EN" "http://www.w3.org/Graphics/SVG/1.1/DTD/svg11.dtd"><svg t="1522422423977" class="icon" style="" viewBox="0 0 1024 1024" version="1.1" xmlns="http://www.w3.org/2000/svg" p-id="1966" xmlns:xlink="http://www.w3.org/1999/xlink" width="128" height="128"><defs><style type="text/css"></style></defs><path d="M0.002613 3.135755h1020.864245v1020.864245H0.002613z" fill="#29AA69" p-id="1967"></path><path d="M762.640949 326.048727c4.833792-4.723199 4.929073-12.546422 0.219486-17.383617l-39.432583-40.441537c-4.7249-4.840598-12.551526-4.947789-17.381915-0.22459l-148.542554 144.835115 56.577998 58.034431 148.559568-144.819802zM813.626312 743.150037h-150.875228c36.460167-4.091964 64.903146-35.075194 64.90825-72.617476 0-40.317332-32.798667-73.112596-73.114297-73.112596s-73.119402 32.793562-73.119402 73.112596c0 37.540581 28.453188 68.523811 64.916758 72.617476H429.345787a393.960019 393.960019 0 0 0 10.293715-5.538188l0.013611-0.006806c31.578734-17.698383 61.682319-40.417717 89.466841-67.504648 25.866999-25.210243 48.081005-52.686804 66.038007-81.672543l7.345118-11.865845-104.066901-106.731357L236.849924 724.881672l-21.063832 20.430896a13.109598 13.109598 0 0 0-3.544101 3.438611 12.900321 12.900321 0 0 0-2.322466 7.391057v68.865801c0 7.144348 5.839343 12.988796 12.985393 12.988796h590.724797c7.139244 0 12.976886-5.844448 12.976886-12.988796v-68.865801c-0.005104-7.142647-5.841045-12.992199-12.980289-12.992199z m-208.372004-72.61067c0-27.170302 22.113621-49.289027 49.299236-49.289028 27.175406 0 49.275416 22.118725 49.28052 49.289028 0 27.183913-22.100009 49.28052-49.28052 49.28052-27.185615-0.001701-49.299236-22.101711-49.299236-49.28052z m-107.45617-150.235487l59.465342 61.003444c-14.986287 22.24293-32.788458 43.473504-53.059419 63.225526-25.560739 24.920998-53.151297 45.753434-82.009428 61.930729l-0.006805 0.003403c-54.939511 30.787564-107.913858 40.856689-144.647957 28.579095l220.258267-214.742197zM540.221853 429.657941l56.577998 58.041236-25.865297 25.210243-56.574595-58.042938 25.861894-25.208541z" fill="#FCFCFC" p-id="1968"></path></svg>