<?xml version="1.0" standalone="no"?><!DOCTYPE svg PUBLIC "-//W3C//DTD SVG 1.1//EN" "http://www.w3.org/Graphics/SVG/1.1/DTD/svg11.dtd"><svg t="1522401951168" class="icon" style="" viewBox="0 0 1024 1024" version="1.1" xmlns="http://www.w3.org/2000/svg" p-id="2664" xmlns:xlink="http://www.w3.org/1999/xlink" width="128" height="128"><defs><style type="text/css"></style></defs><path d="M542.407 231.415c-16.78 11.008-44.24 11.006-61.019-0.004l-143.06-93.869c-16.779-11.01-37.827-5.319-46.773 12.646l-34.149 68.578c-8.946 17.965 0.156 32.664 20.225 32.664l471.836 0c20.069 0 28.889-14.554 19.597-32.344l-36.149-69.217c-9.29-17.79-30.622-23.337-47.402-12.33l-143.106 93.875zM835.395 864c0-9.484 0-416.517 0-425.614s-5.906-15.878-15.496-15.878c-9.589 0-282.722 0-282.722 0l0 474.018c0 0 256.391 0 265.69 0 22.445 0.001 32.528-18.757 32.528-32.527zM223.817 896.528c8.445 0 259.785 0 259.785 0l0-474.018c0 0-268.458 0-278.601 0s-15.487 8.039-15.487 15.878-0.009 417.103-0.009 425.614c0 22.715 18.861 32.527 34.312 32.527zM125.347 286.402c0 8.821 0 94.046 0 102.767 0 8.721 6.741 15.877 15.495 15.877s342.76 0 342.76 0l0-134.52c0 0-332.925 0-342.76 0s-15.495 7.057-15.495 15.877zM882.335 270.526c-12.392 0-345.157 0-345.157 0l0 134.52c0 0 338.532 0 346.492 0 7.96 0 15.489-7.045 15.489-15.877s0-96.681 0-102.767-4.431-15.877-16.823-15.877z" p-id="2665" fill="#1AAD19"></path></svg>