<?xml version="1.0" standalone="no"?><!DOCTYPE svg PUBLIC "-//W3C//DTD SVG 1.1//EN" "http://www.w3.org/Graphics/SVG/1.1/DTD/svg11.dtd"><svg t="1522422474412" class="icon" style="" viewBox="0 0 1024 1024" version="1.1" xmlns="http://www.w3.org/2000/svg" p-id="2601" xmlns:xlink="http://www.w3.org/1999/xlink" width="128" height="128"><defs><style type="text/css"></style></defs><path d="M170.128 668H32v345.328h345.344v-138.112H170.128V668zM32 391.76h138.128V184.576h207.216V46.432H32v345.328z m828.784 483.456h-207.2v138.112h345.328V668h-138.128v207.216zM653.584 46.432v138.144h207.2v207.184h138.128V46.432H653.584z" fill="#1AAD19" p-id="2602"></path><path d="M170.128 621.584H32v345.328h345.344v-138.128H170.128v-207.2zM32 345.328h138.128V138.144h207.216V0H32v345.328z m828.784 483.456h-207.2v138.128h345.328V621.584h-138.128v207.2zM653.584 0v138.144h207.2v207.184h138.128V0H653.584z" fill="#1AAD19" p-id="2603"></path></svg>