<?xml version="1.0" standalone="no"?><!DOCTYPE svg PUBLIC "-//W3C//DTD SVG 1.1//EN" "http://www.w3.org/Graphics/SVG/1.1/DTD/svg11.dtd"><svg t="1522401275813" class="icon" style="" viewBox="0 0 1024 1024" version="1.1" xmlns="http://www.w3.org/2000/svg" p-id="1046" xmlns:xlink="http://www.w3.org/1999/xlink" width="128" height="128"><defs><style type="text/css"></style></defs><path d="M844.356473 435.0081h-211.026505c81.763232-302.017377-56.350045-317.445694-56.350045-317.445694-58.557165 0-46.400394 46.294734-50.822461 54.007915 0 147.700943-154.842777 263.439736-154.842777 263.439736v418.853859c0 41.332628 56.342218 56.215035 78.442769 56.215035h315.05269c29.833297 0 54.137055-78.262755 54.137055-78.262755 78.450595-266.740633 78.450595-346.099121 78.450595-346.099122 0-55.113431-53.039365-50.708974-53.041321-50.708974z m-563.85069 0.138923H156.30245c-26.105847 0-26.516747 25.628421-26.516747 25.628421l26.105847 422.434559c0 26.868947 26.929604 26.868947 26.929604 26.868948h107.213596c22.787341 0 22.581891-17.77436 22.58189-17.774361v-425.124976c0-32.443491-32.110857-32.032591-32.110857-32.032591z" fill="#1AAD19" p-id="1047"></path></svg>